<?xml version="1.0" encoding="utf-8"?>
<!-- Generator: Adobe Illustrator 19.2.0, SVG Export Plug-In . SVG Version: 6.00 Build 0)  -->
<svg version="1.1" id="china-area-map-svg" xmlns="http://www.w3.org/2000/svg" xmlns:xlink="http://www.w3.org/1999/xlink" x="0px"
	 y="0px" viewBox="0 0 464.3 396" style="enable-background:new 0 0 464.3 396;" xml:space="preserve">
<style type="text/css">
	#china-area-map-svg g {
		cursor: pointer;
	}
	#china-area-map-svg g:hover path {
	  fill: #f66;
	  transition: .5s;
	}
	#china-area-map-svg g:hover text {
	  fill: #fff;
	  transition: .5s;
	  text-shadow: 0 0 3px #600;
	}
	#china-area-map-svg .st0{fill:#D3DD9B;stroke:#F9FCFE;stroke-linejoin:round;}
	#china-area-map-svg .st1{font-family:'AdobeMingStd-Light-B5pc-H';}
	#china-area-map-svg .st2{font-size:8.3368px;}
	#china-area-map-svg .st3{fill:#EED38B;stroke:#F9FCFE;stroke-linejoin:round;}
	#china-area-map-svg .st4{fill:#B1F2C7;stroke:#F9FCFE;stroke-linejoin:round;}
	#china-area-map-svg .st5{fill:#C0F0FF;stroke:#F9FCFE;stroke-linejoin:round;}
	#china-area-map-svg .st6{fill:#FFCCA9;stroke:#F9FCFE;stroke-linejoin:round;}
	#china-area-map-svg .st7{fill:#A3D0F8;stroke:#F9FCFE;stroke-linejoin:round;}
</style>
<desc>Created by daf</desc>
<g data-id="1">
	<path class="st0" d="M462,48.7l2.4-4.8l-2.7-3.1l0.5-1.9l-1.2-1.7l-3.1,1.2l-3.6,4.1l-3.6,1.7l-3.6,5l-8.8,3.1l-4.1-3.1l0.5-1.9
		l-2.1-3.1l-1-3.2l-3.4-0.2l-6-3.1l-2.4,0.9l-2.8-1.4l-4.1,0.7l-3.6-1.2l-2.2-3.1l-2.1-2.4l-0.8-2.4l-2.8-2.9l-1.7-2.6l-3.9-5.3
		l-1.2-3.1l-4.3-5.5l-1.2-2.9L384,4.2l-3.6,1.2l-3.1-0.7l-6.9-1.4l-9.2,3.3L359.5,8l1.9,2.6l-2.4,6.3l0.7,0.7l4.1,2.6l2.2-3.6
		l3.8,2.4l-0.2,1.7L371,25l2.4,2.7l4.8,0.7l1.4-1.5l2.9-0.4l5.5-4.6l7.1,5.3l-2.4,9.7l0.5,6.9V48l-1.9,1L391,60.1l-0.5-0.4
		l-1.9-2.4h-1l-0.5,0.9c0,0-7.3,10.9-6,8.8c1.4-2-2.9,3.8-2.9,3.8l0.3,1.2l6,4.1l3.3-0.9l0.5,0.9l-0.7,1l-3.1,1.4l-0.3,2.7l1.3,1.2
		l-0.2,0l-2.2,2.6l-0.2,2.9l-6.3-1.7l-0.9,2l0.5,1.4l3.3,2.4v3.4l0.5,3.3l1.9,2.9l0.3,2.6l1.4,1l4.8-4.6l5,6.3v3.6l2.7,1.4l0.2-1.2
		l0.4,0.1l-0.2,1v1.9l-1.7,1.7l-3.4,3.4h-3.8l-1.4,2.4h-1.5l-2.6,2.6h-1.5l-3.1,3.1l-1.9,0.5l-4.1,6.3l-2.6-3.9l-2.9-1.9l-1.4,1.4
		l1.6,8.3l-1.4,2.9l-1.4,4.3l4,2.7l2.2,0.2l2.9,4.1l2.1-1.2c0,0,2.4-2.4,3.4-4.1s3.4-5.7,3.4-5.7l5.7-1.2l3.6,3.6l-2.6,5.7
		l-3.4,5.3l3.1,2.2l-0.2,2.6l-2.4,2.4l0.5,1l4.1-2.2l6-7.8l9-5.1l2.9-0.9l5.7-8.3l3.6-4.1l0-0.1l3.1-1.9l3.1-8.8l1.4-0.5l3.4,1.9
		l5.5-0.7l1.9-1.7l-2.6-4l0.7-1c0,0,4-1.3,5-1.7c-1.3,0.3,2.2-4.1,2.2-4.1l2.7-1.2l0.2-4l0.7-2.7l1.5-0.5l1.4,1.5l1.4,1.2l3.6-4.8
		l1-3.6l-0.6-0.9l0.3,0l-1-1.8l-0.5-5.8l-4.3-6.7l2.4-2.4l2.2-4.1h8l1.5-1.4l-0.5-3.1l1.7-3.1l-0.5-1.7l0.7-2.9L462,48.7z"/>
	<text transform="matrix(1 0 0 1 399.7005 92.7503)" class="st1 st2">东北地区</text>
</g>
<g data-id="2">
	<path class="st3" d="M401.4,237.6l-3.3-1.5l-3.2-1.4l-3.3-1l1.4-1.2l3.6,1.2h3.9l2.8,1l1.7-0.8l-1.2-2.4l-2.6-1.2l-1.5-2.4
		l-5.5-2.6l0.3-1.4c0,0-6.6-12.5-8.1-13.6s-4.3-1.7-4.3-1.7l-5.7-3.9l0,0l6.7-11.2l-1.2-1.9l1.2-1.2l1.4,0.5l2.2-1.2l1.2-2.6
		l5.5-5.1l4.3-1.4l2-1.9l-0.5-4.1l-2.9-0.3l-6.5,0.8l-4.5-2.2l-2.7,0.5l-6.7,8.5l-1.9,1.2l-4.3-1.9l-0.3-2.2l-0.9-3.8l-2.4-1.4
		l-3.9,0.9l-2.4-1.6l-3.6,4.5l-3.8,1c0,0-3.8,3.4-5.1,4.7c0.9-0.4-6,10.5-6,10.5l1.5,2.9l-0.3,1.2v1.4l0.8,1.2l1.9-1.4l3.1-0.7
		l-8.3,9.2v2.2l1.7,0.5l3.8,3.3l6-0.7l1.6-0.3l0-0.1 M354.1,212.6l-2.7,0.5l0.6,2.3l3.4,1.9l0.5,2.2l-1,1.2l-2.9,1.9l-1.4-1.9
		l-2.2-1.5l-1.2,1l0.3,4.5l-1.7,1.2l-0.7,3.4l-2.7,1.9c0,0,4.1,4.4,2.7,3.4c-1.4-1,3.6,2.9,3.6,2.9l2.4-2.4l0.5,0.4l0.9,4.8L352,243
		l-2.4,1.2l-1.6,3.3l4,2.4l2.4,0.8l0.5,0.9l-1.4,2.7l4.3,8.2l-3.5,1.1l-3.1-0.2c0,0-8.1,8.1-6.7,6.2c1.4-1.9-3.6,1.2-3.6,1.2
		l-2.3,2.3l2.8,5.5l0.3,2.9l-1.5,2.9l-2.1,1.7l-0.5,5.2l0.7,0.8l1.2-0.5l0.7,0.5v3.3l1.5,3.9l1.7,0.7l0.2,5.7l-1,3.9l1,1.7l1.9,1.9
		l4.6-1.2l0.9,1.7l-1.4,1.9l-2.4,3.6v0.9l1.4,1l9.5-3.8l3.4,1.9l1-1l-1-2.1l0.2-1.4l0-0.3l6.2,1.4l1.2,0.9l1.7-0.2l2.6,3.3l2.9,6.3
		l2.6-2.7l1,0.3l2.4-3.1l1.9-2.9l-1.7-1.2l0.3-0.7l1.9-1.7h3.6l0.9-1l-0.4-1.9l2.6-1.4l-0.5-1l2.7-2.6l-1-2l1.4-1.4l2.2,0.5l0.5-0.7
		l-0.5-2.4l0.5-7.4l-1.9-2.1l0.2-0.8l1.4-0.7l2,1l3.4-8.2l-0.3,0.1l0.6-1.3l3.9-9.8l1,1.4l2.6-3.1l-1.7-2.7l1.5-1.7l-1.7-2.8l0.2-2
		h3.2l-0.8-6.7l-7.8-3.3l-4.8,2.1l-2.6-1.4l0.9-0.7l2.7-0.8l1.7-2.6l1.4-1l0.2,0.1l3.6-2.7l1.2-1.7l-1.7-2.4l-3.6-1.5"/>
	<text transform="matrix(1 0 0 1 366.2008 265.7002)" class="st1 st2">华东地区</text>
</g>
<g data-id="3">
	<path class="st4" d="M359.2,162.4l2.8,1.2l6.9-3.8v-2.2l4.1-6l-2.9-4.1l-2.2-0.2l-4-2.7l1.4-4.2l0.4,0l1.4-2.9l-1.6-8.3l1.4-1.4
		l2.9,1.9l2.6,3.9l4.1-6.3l1.9-0.5l3.1-3.1h1.5l2.6-2.6h1.5l1.4-2.4h3.8l3.4-3.4l1.7-1.7v-1.9l-2.7-1.4v-3.6l-5-6.3l-4.8,4.6l-1.4-1
		l-0.3-2.6l-1.9-2.9l-0.5-3.3v-3.4l-3.3-2.4L377,88l0.9-2l6.3,1.7l0.2-2.9l2.2-2.6l-1.5-1.4l0.3-2.7l3.1-1.4l0.7-1l-0.5-0.9
		l-3.3,0.9l-6-4.1l-0.3-1.2l2.9-3.8l6-8.8l0.5-0.9h1l1.9,2.4l0.5,0.4l0.2-11.1l1.9-1v-4.3l-0.5-6.9l2.4-9.7l-7.1-5.3l-5.5,4.6
		l-2.9,0.4l-1.4,1.5l-4.8-0.7l-2.4-2.7l-1.4-4.3l0.2-1.7l-3.8-2.4l-2.2,3.6l-4.1-2.6l-0.7-0.7l2.4-6.3L359.5,8h-1.7l-4.3,3.1
		l-3.6,5.3l1.4,0.9l2.7,0.3l2.1,5.5l-1.2,2.2l-2.1,3.1L349,42.6l1.5,2.4l-1.2,2.1l-8.8,6.5l-4.8-0.9l-2.7-1l-0.4,1.4l-3.9,15.5
		l-1.9,2l1,2.8l2.4,2l4-2.2l6.5,0.5l1.9-3.1l3.4-0.8l6.5,2.4l7.8,8.1V82l-1.7,1.2l-9,0.5l-3.1,2.4l-2.4-0.3l-1.7,2.7l-4.3,0.9
		l-2.9,4.3l-0.5,3.2l-6.2,4l-3.9,0.5l-4.3,5.8l-4.1,2.4l-7.8-1.7l-2.6-1.2l-3.1,3.1l-1.5,5.5l4.3,6.3l-2.8,2.9l-3.9,2.4
		c0,0-7,8.9-5.7,7.1c1.4-1.7-5.5,2.8-7.4,3.3c-1.9,0.5-12.1,1.2-12.1,1.2l-1.9-0.2l-14.1,6l-6.5,4.1l-1.9-1l-0.7-1.9l-8.6-0.5
		l-9.9-3.1l-2.7-3.1l-14.5-1.7l-2.7,1.2l-17.6-1.7l-0.3,2.6l1.2,4.1l-0.7,6.6l5.1,7.4l2.6,1.7l4.1-3.2h8.5l2.2,0.8l1.2,1.9l-1,2.1
		l-4.8,3.9l0.5,1.9l5.5,4.1h2.2l0.7,0.9l-0.5,1.7l3.4,2.7l7.8,1.2l3.8-1l4.8-4.8l5.8,0.5l2.4,3.6l-1.4,3.3l0.4,2l-3.1,1.9l-1.4,1.7
		l0.5,4l5.5,3.9l2.5-1.2l2.9-0.6l2.4-1l4-3.3l0.8-5.3l2.4-7.6l5-3.4l0.7,0.8l1.5,5.2l-2.4,3.4l-0.5,3.1l7.6,2.9l0.7,2.2l4.5-0.3
		l2.2,0.5l1,0.7l7.8-11.2l2.1-0.7l0.5-1.4l-0.2-2.2l2.6-3.8l5.1-0.3l1.9-2.1l1,0.8l-0.1,0.1l0.2,3.4l-1.4,2.9l-0.5,3.8l-2.6,4.1
		l2.8,5.8l-0.9,3.3L299,194c0,0,3.5,15.8,3.1,14.1c-0.4-1.7-2.1,7.3-2.1,7.3l1.2,3l6.9-1.9l8.6-6l6.2-1.2l4.6-3.6l0.5-7.5l9.4,1.2
		l3.8-1.5l1.4,0.2l0.3-1.2l-1.5-2.9l5.8-10.4c0,0,4-3.6,5.2-4.7c-1.8,1.7,3.9-1.1,3.9-1.1l3.6-4.5l-1.4-0.9l-1.3-3.3l-0.4,0.1
		c0.1-0.1,0.2-0.1,0.2-0.1l-0.9-2.1l0.7-3.2l2-1.4 M352.8,153"/>
	<text transform="matrix(1 0 0 1 307.6001 150.0476)" class="st1 st2">华北地区</text>
</g>
<g data-id="4">
	<path class="st5" d="M295.9,261.2c1.5-0.3,4.1-3.2,4.1-3.2l1.4,0.5l0.7-1.9l-0.9-5.5l-2.2-2.9l-2.1-0.2l-3.4,0.7l-1.4-1.9l-6.7-2.4
		l-2.9,1.1l-5.3-2.6l-2.6-0.7l-0.3-1.7l-1.2-0.5l-6.2,1.2l-1.7-0.2l-0.2-2.2l-2-0.4l-3.6,0.9l0.3,1.7l-1,1.2l-6.2-0.5l-2.4-1.7
		l-0.5-3.8l-1.4-1.4l-2.2,1.4l-3.8-3.8l-2.9-2l-0.3-2.8l-0.9-2.2h-1.5l-6,2.6l0.3,2.9l1.7,1.9l-1.5,3.4l0,0.2L228,236l-2.2,1.6
		l-1.4-2.4l-3.8,1.5l-1,1.9v2.9l-3.8,0.7l-4.8-4.8l-1.5-2.4l-3.8,1.2l-6.5-1.9l-9.7,1.4l-0.8,1l-0.9,3.1l0.1,0.1l-1.6,1l0.2,3.1
		l-5.8,7.4l-9.5-2l-0.7-3.6l-6-4.8l-13.1-2.1l-5.7-1l-2.2-0.2l-5-4.1l-10.3-2.4l-7.1-13.8l-0.2-3.9l2.9-1.4v-4.3l2.1-5.3l-2.4-2.4
		l3.2-2.6l-2-1.2h-4.8l-8.5-3.9h-5.5l-4.3,1.2h-4.8l-7.4,4.1l-6-0.7l-6,2.1l-5-1.6l-3.1-2.7l-7.9-1.2l-5.2,3.6l-2.9-1.2l-2.4-1.9
		l-5.8-1.4l-0.9-1L42,192l-8.2,5l-8.7-1.1l2,3.7l2.2,1.7l-0.7,3.2l-0.2,3.1l0.2,2.2l-0.2,2.7l2.9,2.9l0.2,4.1l-0.9,1.6l-4.3,0.5
		l-2.2-2.4l-2.2,0.3l-0.4,1.9l1.2,3.1l0.4,2.2v2.8l-0.7,2l0.3,1.6l2.8,0.3L27,236l6.5,5.1v1.6l4.8,5.3l1.6,1.9l1.5,0.5l2.9-2.9
		l2.6,2.4c0,0,8,7.1,10.4,9.1c0.1,0.8,2.5,5,2.5,5h2.4l1.4-1.4l1.2,1.2v4.3l6.5,3.6l1.4-0.3l1,3.6l5.5,3.2l0.2,2.1l1,0.7l4.8-0.2h2.6
		l3.9,2.9l8.5-0.3l4.6-0.2l1.2,1.9l-1,4.1l1.2,1.4l4.8-4l6-4.4l4.3,0.8l4.1,2.1l5.7,0.7l1.9,2.7l1,0.4l8.5-1.6l0.5-1.5l1.7-0.9
		l4.1-3.4l3.6-0.5l3.3-2.1l6.5-3.6l0.7,1.2l4.8,1.6l6.9-3.6l2.2,1.5l-2,2.9l0.8,0.7h2.8l0.3,1.2l-2.4,4.3l0.7,0.7h1.4l6.9,1.9
		l3.1-2.6l4.2,3.3l-0.2,0.2l1.4,6.2h1.7l1.4,1c0,0,0.4,2,0.5,3.8c0.1,1.8-0.7,13.1-0.7,13.1l-9,8.1l-0.5,3.1l-1.7,1.5l-0.2,1.6
		l1.4,3.9l-1.2,2.9l0.7,0.4l4.6-1.2l6.5-0.4l-0.7,2.6l1.2,2.4l0.4,3.6l0.8,1.2l3.8,0.2l1.7,1.2l-1.9,2.4l-0.3,2.9l-1.4,3.4l0.9,1.2
		l2.4,0.2l4.1,1.5l-0.5,1.4l2.7,4.1h3.8l4.8-2.7l1.5,0.8v1.6l0.7,2.4l1.2,1.2l2.6-0.4l1,0.7l0.9-1v-3.8l-1.6-6.9l1.2-2.1h4h1l2.2-2.7
		l5.7,1.9l2.4-2.1l1.2,1.2l2.4-1.5l2.2,2.2h0.9l0.8-1.2l1.9-1.9l0.9,0.7l2.7-0.5l2.6-2.1l2.2-3.2l3.1-0.7l1.7,1.7l1.2-3.4l2.4-0.2
		l0.9-0.7l0.8-3.1l-1-1.7l-8.1-1.5l-1.4-2.4h-2.4h-2.2l-1.6-2.6l0.2-1.4l0-0.1l2.9,0.2l3.4-3.1l1.4,0.9l6.5,2.7l1.2-0.7l0.2-2.2
		l1.2-1.2l9.1-6l1.6,1.9l5.6,1.7l3.1-4.1l1.4,1h2.2v-1.2l2.9-1v-0.9l1.2-1.2l0.7,0.2l2.9-2.9l-2.4-4.3l1.2-6l-1.5-1.9l-4.3,1.2
		L293,298l4.8-5.3l-2-8.1l0,0l-0.3-7.8l-4.8-6l-1.9-0.5l-0.2-4.1l-1.5-1.9l1.9-1.9C289,262.4,294.4,261.5,295.9,261.2z"/>
	<text transform="matrix(1 0 0 1 218.6039 278.1005)" class="st1 st2">西南地区</text>
</g>
<g data-id="5">
	<path class="st6" d="M230.8,230.9l-0.3-2.9l6-2.6h1.5l0.9,2.2l0.3,2.8l2.9,2l3.8,3.8l2.2-1.4l1.4,1.4l0.5,3.8l2.5,2.3l6.2,0.5
		l1-1.2l-0.3-1.7l3.6-0.9l0.1-0.3l1.4,0.3l0.2,2.2l1.7,0.2l6.2-1.2l1.2,0.5l0.3,1.7l2.6,0.7l5.5,2.7l3.1-1.2l6.8,2.4l1.4,1.9
		l3.4-0.7l-0.5-3.6l-0.7-1l0.7-2.9l3.6-1.7l0.9-1.4l-1.9-0.7l-2.1-0.5l-2.2-2.2l1-0.9h7.1h1.6l1,0.7l2.2-1.7v-2.9l-6.5-9.7l0.1-1.3
		l-1.2-2.9l2.1-7.3L299,194c0,0,1.7-3,2.1-3.7c0.2-0.8,1-3.2,1-3.2l-2.8-5.8l2.6-4.1l0.5-3.8l1.4-2.9l-0.2-3.4l-1.2-0.9l-1.9,2.1
		l-5.1,0.3l-2.6,3.8l0.2,2.2l-0.5,1.4l-2.1,0.7l-7.8,11.2l-1-0.7l-2.2-0.5L275,187l-0.7-2.1l-7.6-2.9l0.5-3.1l2.4-3.4l-1.5-5.2
		l-0.7-0.8l-5,3.4l-2.4,7.6l-0.8,5.3l-4,3.3l-2.4,1l-2.9,0.6c0,0,0.1,0.2,0.3,0.4l-2.3,0.5l-5.5-3.9l-0.5-4l1.4-1.7l3.1-1.9l-0.4-2
		l1.4-3.3l-2.4-3.6l-5.8-0.5l-4.8,4.8l-3.8,1l-7.8-1.2l-3.4-2.7l0.5-1.7l-0.7-0.9H217l-5.5-4.1L211,164l4.8-3.9l1-2.1l-1.2-1.9
		l-2.2-0.8h-8.5l-4.1,3.2l-2.6-1.7l-5.1-7.4l0.7-6.7l-1.2-4.1l0.3-2.6l-6-1l-1.5-0.2l-0.2,0.2l-2.6-4.7l-2.2-6l-2.2-4.6l-0.2-1.9
		l-3.4-1.2l-10.4-7.1l-10-1.5l-9.3-4l-0.7-3.6l2.7-4.6l-0.3-1.7l1.5-4.5l-2.9-7.4l-2.9-6.2h-1.2l-2.2-1.9l-5-0.3l-1-2.9l-3.8-3.8
		l-0.2-1.4l-1.7-2l1.2-3.8h-1.9l-4.1-1l-1.9,1l-0.9,2.9l-2.4,2.9l-3.4,0.2l-2.9,1.9l-1.7,11l-6.7,2.1l-1.4-1.9H98l-6.8-3.7L90,76.1
		l-7.6,15.5l1.9,1.9l-1.4,1.9l-1-0.2l-3.6-0.8l-1.6-2.1l-10.3,0.9l-4,1.2l0.2,1l3.8,1.4l-0.7,2.7l-0.2,13.2v1.6h-1.2l-3.9,3.1
		l-1.2,5.3l-0.9,1.9l-13.8,3.1l-4.8,3.4c0,0-7.7-3.1-9.3-2c-1.6,1.2-4.6,5.1-4.6,5.1l-4,0.2l-1.7-0.7l-0.3-2.4l-0.7-0.5l-1.9,0.7
		l-2.6-0.7l-3.2,1.2l-3.6,0.7l-3.6,1.7v2.2l-1,1l-2.5,2.3l0.8,2.7L0,145.5l1,2.8l2.5-0.9l3.9,3.9l-0.5,4.8l0.5,5.7l-1.7,1.7l-1.7-1
		l-2.9,1.2v1l6,3.4l1,1.9l2.8,1.9l0.4,1.9l-1.2,3.9l1.7,3.8l2.2,0.2l7.8,5.8l3.8,1l-0.9,7.2l0.7,0.3l8.4,1l8.2-5l2,0.2l0.9,1
		l5.8,1.4l2.4,1.9l2.9,1.2l5.2-3.6l7.9,1.2l3.1,2.7l5,1.6l6-2.1l6,0.7l7.4-4.1h4.8l4.3-1.2h5.5l8.5,3.9h4.8l2,1.2l-3.4,2.2l2.4,2.4
		l-2.1,5.3v4.3l-2.9,1.4l0.2,3.9l7.1,13.8l10.3,2.4l5,4.1l2.2,0.2l5.7,1l13.1,2.1l6,4.8l0.7,3.6l9.5,2l5.8-7.4l-0.2-3.1l1.9-1.2
		l0.9-3.1l0.8-1l9.7-1.4l6.5,1.9l3.8-1.2l1.5,2.4l4.8,4.8l3.8-0.7v-2.9l1-1.9l3.8-1.5l1.4,2.4l2.2-1.6l3.5,0.6v-0.2l1.5-3.4
		l-1.7-1.9"/>
	<text transform="matrix(1 0 0 1 146.9021 183.6807)" class="st1 st2">西北地区</text>
</g>
<g data-id="6">
	<path class="st7" d="M316.2,371.1l-1.2,1.4l-3.6,0.3l-7.8,1.4c0,0-3.7,3.4-1.7,1.4c-1.1,1.1-4.8,4.8-4.8,4.8l-0.5,2.9l1.7,6.3
		l8.8,3.1l8.5-6.9v-3.3l4.3-7.4l-1.1-3.3L316.2,371.1z"/>
	<path class="st7" d="M338.8,273.1l2.4-2.4l3.6-1.2l6.7-6.2l3.1,0.2l3.8-1.2l-4.5-8.5l1.4-2.7l-0.5-0.9l-2.4-0.8l-4-2.4l0,0l1.5-3.1
		l2.4-1.2l0.5-2.7l-0.9-4.8l-0.5-0.4l-2.4,2.4l-3.6-2.9l-2.7-3.4l2.7-1.9l0.7-3.4l1.7-1.2l-0.3-4.5l1.2-1l2.2,1.5l1.4,1.9l2.9-1.9
		l1-1.2l-0.5-2.2l-3.4-1.9l-0.7-2.2l-6,0.7l-3.8-3.3L340,210v-2.2l8.3-9.2l-3.1,0.7l-1.9,1.4l-0.8-1.2v-1.4l-1.4-0.5l-3.8,1.5
		l-9.5-1.2l-0.5,7.8c0,0-3.9,3.1-4.6,3.6c0.9-0.7-6.2,1.2-6.2,1.2l-8.6,6l-6.8,1.9v1.2l6.5,9.7v2.9l-2,1.5l-1-0.7H303h-7.1l-1,0.9
		l2.2,2.2l2.1,0.5l1.9,0.7l-0.9,1.4l-3.6,1.7l-0.7,2.9l0.7,1l0.5,3.6l2.1,0.2l2.2,2.9l0.9,5.5l-0.7,1.9l-1.4-0.5l-4.1,3.2l-6.9,1.2
		l-1.9,1.9l1.5,1.9l0.2,4.1l1.9,0.5l4.4,5.6l-0.1,0.2c0,0-0.2,5.4,0.3,7.8c0.5,2.4,2.1,8.3,2.1,8.3L293,298l0.5,0.7l4.3-1.2l1.5,1.9
		l-1.2,6l2.4,4.3h0l-2.7,2.7l-0.7-0.2l-1.2,1.2v0.9l-2.9,1v1.2h-2.2l-1.4-1l-3.1,4.1l-5.6-1.7l-1.6-1.9l-9.1,6l-1.2,1.2l-0.2,2.2
		l-1.2,0.7l-6.5-2.7l-1.4-0.9l-3.4,3.1l-3.1-0.2l-0.1,1.4l1.6,2.6h2.2h2.4l1.4,2.4l8.1,1.5l1,1.7l-0.8,3.1l-0.9,0.7l-2.4,0.2
		l-1.2,3.4l3.1,2.2l3.1-0.8l0.7,0.8h2.9l2.2,1.6l-1.9,3.9c0,0,2.9,4.7,1.4,3.8c-1.6-0.8,7.6,4.3,7.6,4.3l3.4-0.2l3.5-0.2l3.4-3.4
		l3.4,1.4l3.3,2.4l5.8-0.8v2l-0.8,4.4l3.4,6.2l2.9,0.2l2.4-2.1l-3.6-5.8l1.9-1.9l3.8-2.6c0,0,5.4-1.9,7.6-2.7
		c2.2-0.8,2.9-2.9,2.9-2.9h4.3l2.2-0.9l4.1-1l2.1-2.9l3.9-1.6l-1.5-4.1l0.3-2.7l4.3,3.4l5.3-2.2l2.1-1.4l1.7,1l2.4-1.7h2.6h1.5v-0.7
		l1.2-2l1.9,1l4.8-2.4l1.4-2.9l1.5-0.5l1.7-3.1l1.9-1.4l-2.9-6.3l-2.6-3.3l-1.7,0.2l-1.2-0.9l-6.2-1.4l-0.2,1.4l1,2.1l-1,1l-3.4-1.9
		l-9.5,3.8l-1.4-1v-0.9l2.4-3.6l1.4-1.9l-0.9-1.7l-4.6,1.2l-1.7-1.7h0l-1-1.7l1-3.9l-0.2-5.7l-1.7-0.7l-1.5-3.9V292l-0.7-0.5
		l-1.2,0.5l-0.7-0.8l0.5-5.2l2.1-1.7l1.5-2.9l-0.3-2.9l-3.1-5.4"/>
	<path class="st7" d="M350.5,346.8c0.1,0,0.1,0,0.1-0.1C350.2,346.9,350,347,350.5,346.8z"/>
	<path class="st7" d="M352.2,341.5l-2.9,2.1l-2.8-0.6l-0.6,0.6l0.7,2.9c0,0,5-0.4,4,0.2c0.9-0.4,3-1.4,3-1.4L352.2,341.5z"/>
	<path class="st7" d="M344.2,348.9c-1.7-0.1-2.6-0.5-3-0.7l-1.2,4.2l9.2-3.9C349.2,348.5,346.8,349.1,344.2,348.9z"/>
	<path class="st7" d="M340.9,348c0,0,0.1,0.1,0.3,0.2l0.5-1.7L340.9,348z"/>
	<text transform="matrix(1 0 0 1 294.8004 334.1005)" class="st1 st2">中南地区</text>
</g>
</svg>
