<?xml version="1.0" encoding="utf-8"?>
<!-- Generator: Adobe Illustrator 19.2.0, SVG Export Plug-In . SVG Version: 6.00 Build 0)  -->
<svg version="1.1" id="china-map-svg" xmlns="http://www.w3.org/2000/svg" xmlns:xlink="http://www.w3.org/1999/xlink" x="0px" y="0px"
	 viewBox="0 0 464.3 396" style="enable-background:new 0 0 464.3 396;" xml:space="preserve">
	<style type="text/css">
		#china-map-svg g {
			cursor: pointer;
		}
		#china-map-svg g:hover path {
		  fill: #f66;
		  transition: .5s;
		}
		#china-map-svg g:hover text {
		  fill: #fff;
		  transition: .5s;
		  text-shadow: 0 0 3px #600;
		}
		.st0{fill:#FFE7B8;stroke:#F9FCFE;stroke-linejoin:round;}
		.st1{font-family:'AdobeMingStd-Light-B5pc-H';}
		.st2{font-size:8.3368px;}
		.st3{fill:#C0F0FF;stroke:#F9FCFE;stroke-linejoin:round;}
		.st4{fill:#D3DD9B;stroke:#F9FCFE;stroke-linejoin:round;}
		.st5{fill:#FFCCA9;stroke:#F9FCFE;stroke-linejoin:round;}
		.st6{fill:#F7B7B7;stroke:#F9FCFE;stroke-linejoin:round;}
		.st7{fill:#B1F2C7;stroke:#F9FCFE;stroke-linejoin:round;}
		.st8{fill:#F4D3F4;stroke:#F9FCFE;stroke-linejoin:round;}
		.st9{fill:#F9CACA;stroke:#F9FCFE;stroke-linejoin:round;}
		.st10{fill:#B7EAC6;stroke:#F9FCFE;stroke-linejoin:round;}
		.st11{fill:#EED38B;stroke:#F9FCFE;stroke-linejoin:round;}
		.st12{fill:#F3F393;stroke:#F9FCFE;stroke-linejoin:round;}
		.st13{fill:#A3D0F8;stroke:#F9FCFE;stroke-linejoin:round;}
	</style>
	<desc>Created by daf</desc>
	<g data-id="1">
		<path class="st0" d="M385.7,82.6l5.7-1l2.4,4.4l3.6,2.6l2.4-1h2l3.6-2.1l2.6,2.6l1.7,0.3l4.5-1.7l3.2,1.7l1.4,3.6h2.4l1.2,1.6
			l3.1,3.4l1.2-0.7l-0.5-4.3l1.7-1.2l2.4,4.8l2.2,0.9l2.4,2.7l1.7-0.3l0.7-1.2l3.8-4.3l1.7,1.2l1.2-1.7l1.2,2.2l3.6,1.2h2.4l1.7,0.1
			l-1-1.8l-0.5-5.8l-4.3-6.7l2.4-2.4l2.2-4.1h8l1.5-1.4l-0.5-3.1l1.7-3.1l-0.5-1.7l0.7-2.9L462,48.7l2.4-4.8l-2.7-3.1l0.5-1.9
			l-1.2-1.7l-3.1,1.2l-3.6,4.1l-3.6,1.7l-3.6,5l-8.8,3.1l-4.1-3.1l0.5-1.9l-2.1-3.1l-1-3.2l-3.4-0.2l-6-3.1l-2.4,0.9l-2.8-1.4
			l-4.1,0.7l-3.6-1.2l-2.2-3.1l-2.1-2.4l-0.8-2.4l-2.8-2.9l-1.7-2.6l-3.9-5.3l-1.2-3.1l-4.3-5.5l-1.2-2.9L384,4.2l-3.6,1.2l-3.1-0.7
			l-6.9-1.4l-9.2,3.3L359.5,8l1.9,2.6l-2.4,6.3l0.7,0.7l4.1,2.6l2.2-3.6l3.8,2.4l-0.2,1.7l1.4,4.3l2.4,2.7l4.8,0.7l1.4-1.5l2.9-0.4
			l5.5-4.6l7.1,5.3l-2.4,9.7l0.5,6.9V48l-1.9,1L391,60.1l-0.5-0.4l-1.9-2.4h-1l-0.5,0.9c0,0-7.3,10.9-6,8.8c1.4-2-2.9,3.8-2.9,3.8
			l0.3,1.2l6,4.1l3.3-0.9l0.5,0.9l-0.7,1l-3.1,1.4l-0.3,2.7L385.7,82.6z"/>
		<text transform="matrix(1 0 0 1 412.1733 68.7036)" class="st1 st2">黑龙江</text>
	</g>
	<g data-id="2">
		<path class="st3" d="M452.5,96.2l-1.7-0.1h-2.4l-3.6-1.2l-1.2-2.2l-1.2,1.7l-1.7-1.2l-3.8,4.3l-0.7,1.2l-1.7,0.3l-2.4-2.7l-2.2-0.9
			l-2.4-4.8l-1.7,1.2l0.5,4.3l-1.2,0.7l-3.1-3.4l-1.2-1.6h-2.4l-1.4-3.6l-3.2-1.7l-4.5,1.7l-1.7-0.3l-2.6-2.6l-3.6,2.1h-2l-2.4,1
			l-3.6-2.6l-2.4-4.4l-5.7,1l-2.2,2.6l-0.2,2.9l-6.3-1.7l-0.9,2l0.5,1.4l3.3,2.4v3.4l0.5,3.3l1.9,2.9l0.3,2.6l1.4,1l4.8-4.6l5,6.3v3.6
			l2.7,1.4l0.2-1.2l4.1,1.2l2.9,3.4l1.4-1.5l0.3-0.9l6.9,9.2l0.5,3.6l3.8,4.4l0.5,4l3.4-2.1l3.1-8.8l1.4-0.5l3.4,1.9l5.5-0.7l1.9-1.7
			l-2.6-4l0.7-1c0,0,6.5-2.2,5.1-1.7c-1.5,0.5,2.1-4.1,2.1-4.1l2.7-1.2l0.2-4l0.7-2.7l1.5-0.5l1.4,1.5l1.4,1.2l3.6-4.8l1-3.6
			L452.5,96.2z"/>
		<text transform="matrix(1 0 0 1 404.9731 105.417)" class="st1 st2">吉林</text>
	</g>
	<g data-id="3">
		<path class="st4" d="M407.7,146.4l5.7-8.3l3.6-4.1l-0.5-4l-3.8-4.4l-0.5-3.6l-6.8-9.2l-0.3,0.9l-1.4,1.5l-2.9-3.4l-4.1-1.2l-0.2,1.2
			v1.9l-1.7,1.7l-3.4,3.4h-3.8l-1.4,2.4h-1.5l-2.6,2.6h-1.5l-3.1,3.1l-1.9,0.5l-4.1,6.3l-2.6-3.9l-2.9-1.9l-1.4,1.4l1.6,8.3l-1.4,2.9
			l-1.4,4.3l4,2.7l2.2,0.2l2.9,4.1l2.1-1.2c0,0,2.4-2.4,3.4-4.1c1-1.7,3.4-5.7,3.4-5.7l5.7-1.2l3.6,3.6l-2.6,5.7l-3.4,5.3l3.1,2.2
			l-0.2,2.6l-2.4,2.4l0.5,1l4.1-2.2l6-7.8l9-5.1L407.7,146.4z"/>
		<text transform="matrix(1 0 0 1 389.0268 133.6665)" class="st1 st2">辽宁</text>
	</g>
	<g data-id="4">
		<path class="st3" d="M342.6,198.1l0.3-1.2l-1.5-2.9l5.8-10.4c0,0,7.3-6.6,5.3-4.8c-2,1.8,3.8-1,3.8-1l3.6-4.5l-1.4-0.9l-1.3-3.3
			l-2.8,1.1l-4.6-1.2l-0.2-1.2l-0.2-7.6l3.1-1.4l-0.3-1.3l-0.1-0.1l0.7-3l-4.2,1.8l0.7,1.6l0.1,1.2l0.2,1.2l-2.4,1l-1.5,1.4l-3.1-0.9
			l-4.1,0.7l-0.7-1.9l0.5-3.6l3.1-3.6l0.7-4.1l3.1-3.1l5.6,2.9h1.4l1,4l1.6,0.8l0.8,2.6l-0.3,1.7l3.4,2.4l0.5,1.9l2.8,1.2l6.9-3.8
			v-2.2l4.1-6l-2.9-4.1l-2.2-0.2l-4-2.7l1.4-4.3l-6.2-0.5l-2.7-4l0.3-2.2l-5.3-5.8l-3.4,1.7l-2.9,2.9l1,2.2l-0.7,1.4l-4.1,0.2
			l-1.9,1.7l-1.7-0.7l-1.7,1.7l-3.8,2.9l-1.7-1.2v-3.9l-1.4-0.7l-2.2,1l-2.6,5.5l-1,5.3l3.1,5.2l2.7,2.4v4.4l1.6,3.6l-0.7,4l-4.1,2.7
			l-1.9,6.2l3.4,3.9l2.4,4.8l-1.5,2.4l-0.4,3.3l-1.5,2.2l-0.7,2.4l2.2,2.9l9.5,1.2l3.8-1.5L342.6,198.1z"/>
		<text transform="matrix(1 0 0 1 332.0561 179.3809)" class="st1 st2">河北</text>
	</g>
	<g data-id="5">
		<path class="st5" d="M353.1,212.6l0.5-2.4l2.1-0.9l3.9,3.3h1.2l3.6-0.4l2.1-1.7l2.9,2.4l1.2-2.2l0.3-1.2l2.4-1.4l0.7-2.9l2.4-0.5
			l6.7-11.2l-1.2-1.9l1.2-1.2l1.4,0.5l2.2-1.2l1.2-2.6l5.5-5.1l4.3-1.4l2-1.9l-0.5-4.1l-2.9-0.3l-6.5,0.8l-4.5-2.2l-2.7,0.5l-6.7,8.5
			l-1.9,1.2l-4.3-1.9l-0.3-2.2l-0.9-3.8l-2.4-1.4l-3.9,0.9l-2.4-1.6l-3.6,4.5l-3.8,1c0,0-7.1,6.5-5.3,4.8c1.8-1.7-5.8,10.4-5.8,10.4
			l1.5,2.9l-0.3,1.2v1.4l0.8,1.2l1.9-1.4l3.1-0.7l-8.3,9.2v2.2l1.7,0.5l3.8,3.3l6-0.7L353.1,212.6z"/>
		<text transform="matrix(1 0 0 1 355.3998 196.1035)" class="st1 st2">山东</text>
	</g>
	<g data-id="6">
		<path class="st3" d="M401.4,237.6l-1.2,3.6l-1.6,1.9l-2.7,3.2l-4.1-0.7l-3.3-2l-2,1l-7.1-0.7l-0.2-2.9l-3.6-2.4l-1.2-2.2l1.7-1.9
			v-1.4v-1.9l4.3-0.5l0.2-1.7l-1.4-1.9l-2.2-0.3l-1.4,2.4l-3.6-0.7l-1-1.9l-2.4-1.4l0.8-5.1l-0.5-0.9l-2.4,0.4l-1.7-1.4l-4.3-1.2
			l-2.4-2.4l-5.3-2.2l0.5-2.4l2.1-0.9l3.9,3.3h1.2l3.6-0.4l2.1-1.7l2.9,2.4l1.2-2.2l0.3-1.2l2.4-1.4l0.7-2.9l2.4-0.5l6,4.1
			c0,0,2.8,0.6,4.3,1.7c1.5,1.1,8.1,13.6,8.1,13.6l-0.3,1.4l5.5,2.6l1.5,2.4l2.6,1.2l1.2,2.4l-1.7,0.8l-2.8-1h-3.9l-3.6-1.2l-1.4,1.2
			l3.3,1l3.2,1.4L401.4,237.6z"/>
		<text transform="matrix(1 0 0 1 381.8452 227.7661)" class="st1 st2">江苏</text>
	</g>
	<g data-id="7">
		<path class="st6" d="M401.5,282.2l-5.4,1.9l-3.1-3.1l-2.1,2.7h-3.4l-1.4-2.9l-1.7-4.3l-3.1-0.5l-3.4-6.3l-2.2-3.1l1.6-1.5l0.6-0.6
			c0,0,5.2-7.4,3.6-5.1c-1.6,2.3-0.2-4.1-0.2-4.1l1.2-1.6l2.8-0.5l0.8-1.2l-1-1.9l1.4-2v-3.8l2-1l3.3,2l4.1,0.7l2.7-3.2l3.3,2.8
			l-1.5,1.1l-1.7,2.6l-2.7,0.8l-0.9,0.7l2.6,1.4l4.8-2.1l7.8,3.3l0.8,6.7h-3.2l-0.2,2l1.7,2.8l-1.5,1.7l1.7,2.7l-2.6,3.1L406,271
			l-3.9,9.8L401.5,282.2z"/>
		<text transform="matrix(1 0 0 1 387.1655 265.2383)" class="st1 st2">浙江</text>
	</g>
	<g data-id="8">
		<path class="st7" d="M351.4,213.1l1.7-0.5l5.3,2.2c0,0,1.5,1.9,2.4,2.4c0.9,0.5,4.3,1.2,4.3,1.2l1.7,1.4l2.4-0.4l0.5,0.9l-0.8,5.1
			l2.4,1.4l1,1.9l3.6,0.7l1.4-2.4l2.2,0.3l1.4,1.9l-0.2,1.7l-4.3,0.5v1.9v1.4l-1.7,1.9l1.2,2.2l3.6,2.4l0.2,2.9l7.1,0.7v3.8l-1.4,2
			l1,1.9l-0.8,1.2l-2.8,0.5l-1.2,1.6l0.2,4.1l-3.6,5.1l-0.6,0.6l-2-1.8h-5.1l-2.1-2.4l-4.1,4l-1.5-0.7l1.7-3.1l-0.2-1l-1.5-0.4
			l-4.8,2.6l-4.5-8.5l1.4-2.7l-0.5-0.9l-2.4-0.8l-4-2.4l1.6-3.3l2.4-1.2l0.5-2.7l-0.9-4.8l-0.5-0.4l-2.4,2.4c0,0-5-3.9-3.6-2.9
			c1.4,1-2.7-3.4-2.7-3.4l2.7-1.9l0.7-3.4l1.7-1.2l-0.3-4.5l1.2-1l2.2,1.5l1.4,1.9l2.9-1.9l1-1.2l-0.5-2.2l-3.4-1.9L351.4,213.1z"/>
		<text transform="matrix(1 0 0 1 358.812 245.6104)" class="st1 st2">安徽</text>
	</g>
	<g data-id="9">
		<path class="st8" d="M307.6,232.2l7.8,6.9l6.5,1.4l6-0.9l1.9,0.9l2.1-1.2l1.5,1.5l0.7,2.4l2.9,1.6h3.8l2.9,2.4l2.6-1.2l2,1.2
			l1.6-3.3l2.4-1.2l0.5-2.7l-0.9-4.8l-0.5-0.4l-2.4,2.4l-3.6-2.9l-2.7-3.4l2.7-1.9l0.7-3.4l1.7-1.2l-0.3-4.5l1.2-1l2.2,1.5l1.4,1.9
			l2.9-1.9l1-1.2l-0.5-2.2l-3.4-1.9l-0.7-2.2l-6,0.7l-3.8-3.3L340,210v-2.2l8.3-9.2l-3.1,0.7l-1.9,1.4l-0.8-1.2v-1.4l-1.4-0.5
			l-3.8,1.5l-9.5-1.2l-0.5,7.8c0,0-5.5,4.3-4.6,3.6c0.9-0.7-6.2,1.2-6.2,1.2l-8.6,6l-6.8,1.9v1.2l6.5,9.7L307.6,232.2L307.6,232.2z"/>
		<text transform="matrix(1 0 0 1 321.5883 227.2764)" class="st1 st2">河南</text>
	</g>
	<g data-id="10">
		<path class="st0" d="M301.2,218.4l6.9-1.9l8.6-6l6.2-1.2l4.6-3.6l0.5-7.8l-2.2-2.9l0.7-2.4l1.5-2.2l0.4-3.3l1.5-2.4l-2.4-4.8
			l-3.4-3.9l1.9-6.2l4.1-2.7l0.7-4l-1.6-3.6v-4.4l-2.7-2.4l-6.2,3.2l-1-1l-3.3,2.4l-2.7-0.2L308,165h-1.6l-2.9,2.4l0.2,3.4l-1.4,2.9
			l-0.5,3.8l-2.6,4.1l2.8,5.8l-0.9,3.3L299,194c0,0,3.5,15.8,3.1,14.1c-0.4-1.7-2.1,7.3-2.1,7.3L301.2,218.4z"/>
		<text transform="matrix(1 0 0 1 307.7368 189.3906)" class="st1 st2">山西</text>
	</g>
	<g data-id="11">
		<path class="st9" d="M301.2,218.4l-1.2-2.9l2.1-7.3L299,194c0,0,2.7-4.8,2.2-3.6c-0.5,1.2,0.9-3.3,0.9-3.3l-2.8-5.8l2.6-4.1l0.5-3.8
			l1.4-2.9l-0.2-3.4l-1.2-0.9l-1.9,2.1l-5.1,0.3l-2.6,3.8l0.2,2.2l-0.5,1.4l-2.1,0.7l-7.8,11.2l-1-0.7l-2.2-0.5l-4.5,0.3l-1.5,2.1
			l-0.2,4.6l0.7,1.4l7.6,3.9l4.1,2.6l0.7,2.4l-2.2,3.1l1.2,3.6l-0.7,1.7l-5.7,0.5l-1.2,0.7l0.4,1v1.6l-4.5,0.5l-2.4-1.2h-3.1l-0.5,0.7
			l0.5,1.7l-1.5,1.7l-0.5,1.9l2.9,2.4l-2.1,4.3l0.9,2.2l-0.2,1h-3.4l-2.4,1.2l1.9,2.6l-1.2,3.4l2,0.4l0.2,2.2l1.7,0.2l6.2-1.2l1.2,0.5
			l0.3,1.7l2.6,0.7l5.5,2.7l3.1-1.2l6.8,2.4l1.4,1.9l3.4-0.7l-0.5-3.6l-0.7-1l0.7-2.9l3.6-1.7l0.9-1.4l-1.9-0.7l-2.1-0.5l-2.2-2.2
			l1-0.9h7.1h1.6l1,0.7l2.2-1.7v-2.9l-6.5-9.7L301.2,218.4L301.2,218.4z"/>
		<text transform="matrix(1 0 0 1 279.1498 229.4702)" class="st1 st2">陕西</text>
	</g>
	<g data-id="12">
		<path class="st3" d="M162,168.8l-1.2-13.8l0.7-2.9l4.1-1.9c0,0,4.3-4.2,5.8-4.8c1.4-0.6,8.8-3.6,8.8-3.6l3.6-1.7v-3.4l1.6-1.9
			l1.5,0.2l6,1l-0.3,2.6l1.2,4.1l-0.7,6.7l5.1,7.4l2.6,1.7l4.1-3.2h8.5l2.2,0.8l1.2,1.9l-1,2.1l-4.8,3.9l0.5,1.9l5.5,4.1h2.2l0.7,0.9
			l-0.5,1.7l3.4,2.7l7.8,1.2l3.8-1l4.8-4.8l5.8,0.5l2.4,3.6l-1.4,3.3l0.4,2l-3.1,1.9l-1.4,1.7l0.5,4l5.5,3.9l2.4-0.5l6.4,7.9l1.4,6
			l-0.7,2.9l4.5,2.4v1.9l4.1,1h1.2v-3.4l3.1-0.5l0.8-4l-2.2-1.7l-1.7-1.7l0.7-7.6l1.7-0.9l2.9,1.2l1.2-0.5l0.7,1.4l7.6,3.9l4.1,2.6
			l0.7,2.4l-2.2,3.1l1.2,3.6l-0.7,1.7l-5.7,0.5l-1.2,0.7l0.4,1v1.6l-4.5,0.5l-2.4-1.2h-3.1l-0.5,0.7l0.5,1.7l-1.5,1.7l-0.5,1.9
			l2.9,2.4l-2.1,4.3l0.9,2.2l-0.2,1h-3.4l-2.4,1.2l1.9,2.6l-1.2,3.4l-3.6,0.9l0.3,1.7l-1,1.2l-6.2-0.5L250,240l-0.5-3.8l-1.4-1.4
			l-2.2,1.4l-3.8-3.8l-2.9-2l-0.3-2.8l-0.9-2.2h-1.5l-6,2.6l0.3,2.9h-2.2l-3.6-3.6l-3.8-0.5l-1.5-2.1l1.2-2.4l2.2,2.1l2.6,0.8l2.2-1.7
			v-4.1l2.4-2.2l1.9-1.9l-0.9-2.4l4.8-3.8l0.7-6l-2.2-3.1l-1.2-5.1l-6-7.8l-3.1,1.2l-4.3-3.8l-5.8-3.6l-2.4-5.8l-4.5,1.7l-8.3-5.3
			l-4.1,2.2l-6.3-1l-4.8,2.9l-3.1,0.2l-4.8-2.9l-3.3-1.9L162,168.8z"/>
		<text transform="matrix(1 0 0 1 179.562 164.6562)" class="st1 st2">甘肃</text>
	</g>
	<g data-id="13">
		<path class="st4" d="M295.4,276.5l1.5-3.4l4.3-3.6l4.1,1.7l2.6-1.7l-2.2-2.6l1.2-1.2l11,0.7l3.8,2.6l1.9,1.2l2.9-1.9l2.2-0.7
			l0.5,2.6h1.6l1.2-1.7l2.4-2.4l1.2,1.7v3.4l1,1.4l2.2,0.5l2.4-2.4l3.6-1.2l6.7-6.2l3.1,0.2l3.8-1.2l-4.5-8.5l1.4-2.7l-0.5-0.9
			l-2.4-0.8l-4-2.4l-2-1.2l-2.6,1.2l-2.9-2.4h-3.8l-2.9-1.6l-0.7-2.4l-1.5-1.5l-2.1,1.2l-1.9-0.9c0,0-7.9,0.8-6,0.9
			c2,0.1-6.4-1.4-6.4-1.4l-7.8-6.9l-2.2,1.7l-1-0.7h-1.6h-7.1l-1,0.9l2.2,2.2l2.1,0.5l1.9,0.7l-0.9,1.4l-3.6,1.7l-0.7,2.9l0.7,1
			l0.5,3.6l2.1,0.2l2.2,2.9l0.9,5.5l-0.7,1.9l-1.4-0.5l-4.1,3.2l-6.9,1.2l-1.9,1.9l1.5,1.9l0.2,4.1l1.9,0.5L295.4,276.5z"/>
		<text transform="matrix(1 0 0 1 315.8344 255.1641)" class="st1 st2">湖北</text>
	</g>
	<g data-id="14">
		<path class="st0" d="M338.6,273.1l2.8,5.5l0.3,2.9l-1.5,2.9l-2.1,1.7l-0.5,5.2l0.7,0.8l1.2-0.5l0.7,0.5v3.3l1.5,3.9l1.7,0.7l0.2,5.7
			l-1,3.9l1,1.7l1.9,1.9l4.6-1.2l0.9,1.7l-1.4,1.9l-2.4,3.6v0.9l1.4,1l9.5-3.8l3.4,1.9l1-1l-1-2.1l0.2-1.4l1.5-8.6l1.4-2.2l0.7-2.4
			l1.7-3.6l-0.9-1.4l0.2-3.1l4.1-4.6l-0.3-3.1l2.7-4.6l2.6,0.7l5.3-3.8l1-1.9l-3.4-6.3l-2.2-3.1l1.6-1.5l-2-1.8h-5.1l-2.1-2.4l-4.1,4
			l-1.5-0.7l1.7-3.1l-0.2-1l-1.5-0.4l-4.8,2.6l-3.8,1.2l-3.1-0.2c0,0-8.1,8.1-6.7,6.2c1.4-1.9-3.6,1.2-3.6,1.2L338.6,273.1z"/>
		<text transform="matrix(1 0 0 1 349.6811 282.8594)" class="st1 st2">江西</text>
	</g>
	<g data-id="15">
		<path class="st3" d="M361.6,314.4c0,0,2.4-10.4,1.5-8.6c-0.9,1.8,1.4-2.2,1.4-2.2l0.7-2.4l1.7-3.6l-0.9-1.4l0.2-3.1l4.1-4.6
			l-0.3-3.1l2.7-4.6l2.6,0.7l5.3-3.8l1-1.9l3.1,0.5l1.7,4.3l1.4,2.9h3.4l2.1-2.7l3.1,3.1l5.4-1.9l-3.4,8.2l-2-1l-1.4,0.7l-0.2,0.8
			l1.9,2.1l-0.5,7.4l0.5,2.4l-0.5,0.7l-2.2-0.5l-1.4,1.4l1,2l-2.7,2.6l0.5,1l-2.6,1.4l0.4,1.9l-0.9,1h-3.6l-1.9,1.7l-0.3,0.7l1.7,1.2
			l-1.9,2.9l-2.4,3.1l-1-0.3l-2.6,2.7l-2.9-6.3l-2.6-3.3l-1.7,0.2l-1.2-0.9L361.6,314.4z"/>
		<text transform="matrix(1 0 0 1 373.7387 302.376)" class="st1 st2">福建</text>
	</g>
	<g data-id="16">
		<path class="st3" d="M338.6,273.1l-2.2-0.5l-1-1.4v-3.4l-1.2-1.7l-2.4,2.4l-1.2,1.7h-1.6l-0.5-2.6l-2.2,0.7l-2.9,1.9l-1.9-1.2
			c0,0-2.2-2.1-3.8-2.6c-1.5-0.5-11-0.7-11-0.7l-1.2,1.2l2.2,2.6l-2.6,1.7l-4.1-1.7l-4.3,3.6l-1.5,3.4c0,0-0.2,5.4,0.3,7.8
			c0.5,2.4,2.1,8.3,2.1,8.3L293,298l0.5,0.7l4.3-1.2l1.5,1.9l-1.2,6l2.4,4.3l2.4,0.7l2.4-3.3l1.2,2.6l0.7-0.2l3.8-3.6l1,0.2l1.7-0.9
			l3.1,0.9v3.4l2.4,0.5l-0.7,3.3l-2.2,3.6l-1,3.1h1l2.6-2.4l2.2,4.8l1.7-1.2h1.9l1.9-1.4v-2.9l1-0.9l2.4,0.2l4.1,1.9l0.7-1.4l-1-1.7
			l0.3-1.2l2.6-2.2l4.6,1.2l2.6-1.6l-1-1.7l1-3.9l-0.2-5.7l-1.7-0.7l-1.5-3.9V292l-0.7-0.5l-1.2,0.5l-0.7-0.8l0.5-5.2l2.1-1.7l1.5-2.9
			l-0.3-2.9L338.6,273.1z"/>
		<text transform="matrix(1 0 0 1 311.7797 293.8135)" class="st1 st2">湖南</text>
	</g>
	<g data-id="17">
		<path class="st8" d="M259.7,293.2l-1.4,4l-2.4,0.8l-5.3-0.8l-1.2,1.2l-2.9-0.9L244,301l1.2,1.2v2.4l1.2,2.1l5.3-1.6l1.6,1.4l-2.4,10
			l3.2,3.1l-1,5.8l3.1,0.2l3.4-3.1l1.4,0.9l6.5,2.7l1.2-0.7l0.2-2.2l1.2-1.2l9.1-6l1.6,1.9l5.6,1.7l3.1-4.1l1.4,1h2.2v-1.2l2.9-1v-0.9
			l1.2-1.2l0.7,0.2l2.9-2.9l-2.4-4.3l1.2-6l-1.5-1.9l-4.3,1.2L293,298l4.8-5.3l-2.1-8.3l-3.2,2.4l-2.8-2.9l-2.7-3.6l-0.2-2.2l-1.9-0.4
			l-2.2,0.7l-3.6-1.7l-1.7,4.1l-3.1,0.2l-2.2,3.4l-1.4-0.7l-2.2,0.7l-3.3-1.9l-2.7,3.1v1.4l5.3,2.9l1.2,2.2c0,0-5.1,1.9-3.8,1.4
			C266.7,292.9,259.7,293.2,259.7,293.2z"/>
		<text transform="matrix(1 0 0 1 267.7475 304.7285)" class="st1 st2">贵州</text>
	</g>
	<g data-id="18">
		<path class="st10" d="M231.1,236.2l1.5-3.4l-1.7-1.9l-0.3-2.9l6-2.6h1.5l0.9,2.2l0.3,2.8l2.9,2l3.8,3.8l2.2-1.4l1.4,1.4l0.5,3.8
			l2.4,1.7l6.2,0.5l1-1.2l-0.3-1.7l3.6-0.9l2,0.4l0.2,2.2l1.7,0.2l6.2-1.2l1.2,0.5l0.3,1.7l2.6,0.7l5.5,2.7v6.2l-3.3,0.9l-1.1,6.4
			l-4.5,3.1l-0.8,4.8l-3.8-1.7l-4.7,1.7l-0.2,3.7l-0.4,3.8l5.4,3.4l1.9,5.8l-2.2,0.7l-3.3-1.9l-2.7,3.1v1.4l5.3,2.9l1.2,2.2l-3.8,1.4
			l-5.8-0.2l-0.7-2.4l-2.2-0.8l-3.6,2.2l-2.4-1.2l-0.2-3.1l-1.2-1.5v-1.6l-3.4-0.8l-0.9,1l0.5,2.4l-2.7,1.2l-0.7,1.7l0.7,2.1l-6,6.9
			l1,8.1l-2.9,2.4l-1.4-1.5l-5.8,3.4l-2.2-1.2l-8.3-16l-3.3-2.4l-2.7-0.7l-1.2-2.2l1.5-2.4l-2.4-1.9l-2.9,2.4l-2.9,0.5l-1.9-8.6
			l-0.5-2.1c0,0-1.7-18.8-0.5-13.8c1.2,5-2.6-6.9-2.6-6.9l1.9-1.4l-5.5-10l-6.7-5.3l0.9-3.1l0.8-1l9.7-1.4l6.5,1.9l3.8-1.2l1.5,2.4
			l4.8,4.8l3.8-0.7v-2.9l1-1.9l3.8-1.5l1.4,2.4l2.2-1.6l3.1,0.4L231.1,236.2L231.1,236.2L231.1,236.2z"/>
		<text transform="matrix(1 0 0 1 230.1039 263.5156)" class="st1 st2">四川</text>
	</g>
	<g data-id="19">
		<path class="st4" d="M259.7,293.2l-0.7-2.4l-2.2-0.8l-3.6,2.2l-2.4-1.2l-0.2-3.1l-1.2-1.5v-1.6l-3.4-0.8l-0.9,1l0.5,2.4l-2.7,1.2
			l-0.7,1.7l0.7,2.1l-6,6.9l1,8.1l-2.9,2.4l-1.4-1.5l-5.8,3.4l-2.2-1.2c0,0-9.6-18.4-8.3-16c1.3,2.4-3.3-2.4-3.3-2.4l-2.7-0.7
			l-1.2-2.2l1.5-2.4l-2.4-1.9l-2.9,2.4l-2.9,0.5l-1.9-8.6l-0.5-2.1l-2.9,3.6l-1.2,0.7l0.3,5.5l-0.7,1.2h-1.5l-1.2-1.2l-1.4,1.7
			l1.4,6.2h1.7l1.4,1c0,0,0.4,2,0.5,3.8c0.1,1.8-0.7,13.1-0.7,13.1l-9,8.1l-0.5,3.1l-1.7,1.5l-0.2,1.6l1.4,3.9l-1.2,2.9l0.7,0.4
			l4.6-1.2l6.5-0.4l-0.7,2.6l1.2,2.4l0.4,3.6l0.8,1.2l3.8,0.2l1.7,1.2l-1.9,2.4l-0.3,2.9l-1.4,3.4l0.9,1.2l2.4,0.2l4.1,1.5l-0.5,1.4
			l2.7,4.1h3.8l4.8-2.7l1.5,0.8v1.6l0.7,2.4l1.2,1.2l2.6-0.4l1,0.7l0.9-1v-3.8l-1.6-6.9l1.2-2.1h4h1l2.2-2.7l5.7,1.9l2.4-2.1l1.2,1.2
			l2.4-1.5l2.2,2.2h0.9l0.8-1.2l1.9-1.9l0.9,0.7l2.7-0.5l2.6-2.1l2.2-3.2l3.1-0.7l1.7,1.7l1.2-3.4l2.4-0.2l0.9-0.7l0.8-3.1l-1-1.7
			l-8.1-1.5l-1.4-2.4h-2.4h-2.2l-1.6-2.6l0.2-1.4l1-5.8l-3.2-3.1l2.4-10l-1.6-1.4l-5.3,1.6l-1.2-2.1v-2.4L244,301l2.6-3.6l2.9,0.9
			l1.2-1.2l5.3,0.8l2.4-0.8L259.7,293.2z"/>
		<text transform="matrix(1 0 0 1 221.0493 331.9053)" class="st1 st2">云南</text>
	</g>
	<g data-id="20">
		<path class="st0" d="M126.6,197.9l3.8,1.4l6.5-2.2l-1-1.2h-1.7l-0.7-1.9l0.5-1.7l3.1-1.4l2.2-3.6l-6.7-5.5l-0.3-5.8
			c0,0,1.7-2.1,3.1-2.4c1.3-0.3,21.9-4.3,21.9-4.3l1.5-1.2l3.3,0.5l11,2.6l3.3,1.9l4.8,2.9l3.1-0.2l4.8-2.9l6.3,1l4.1-2.2l8.3,5.3
			l4.5-1.7l2.4,5.8l5.8,3.6l4.3,3.8l3.1-1.2l6,7.8l1.2,5.1l2.2,3.1l-0.7,6l-4.8,3.8l0.9,2.4l-1.9,1.9l-2.4,2.2v4.1l-2.2,1.7l-2.6-0.8
			l-2.2-2.1l-1.2,2.4l1.5,2.1l3.8,0.5l3.6,3.6h2.2l1.7,1.9l-1.5,3.4v0.2L228,236l-2.2,1.6l-1.4-2.4l-3.8,1.5l-1,1.9v2.9l-3.8,0.7
			l-4.8-4.8l-1.5-2.4l-3.8,1.2l-6.5-1.9l-9.7,1.4l-0.8,1l-0.9,3.1l-1.9,1.2l0.2,3.1l-5.8,7.4l-9.5-2l-0.7-3.6l-6-4.8l-13.1-2.1l-5.7-1
			l-2.2-0.2l-5-4.1l-10.3-2.4l-7.1-13.8l-0.2-3.9l2.9-1.4v-4.3l2.1-5.3l-2.4-2.4L126.6,197.9z"/>
		<text transform="matrix(1 0 0 1 169.5688 204.6807)" class="st1 st2">青海</text>
	</g>
	<g data-id="21">
		<path class="st5" d="M319.9,375.1l-4.3,7.4v3.3l-8.5,6.9l-8.8-3.1l-1.7-6.3l0.5-2.9c0,0,6.7-6.7,4.8-4.8c-2,2,1.7-1.4,1.7-1.4
			l7.8-1.4l3.6-0.3l1.2-1.4l2.6,0.7L319.9,375.1z"/>
		<text transform="matrix(1 0 0 1 313.6879 385.9941)" class="st1 st2">海南</text>
	</g>
	<g data-id="22">
		<path class="st11" d="M402,245.8l-3.3-2.8c0,0,0.7-0.3,1.6-1.9c0.9-1.6,1.2-3.6,1.2-3.6l3.6,1.5l1.7,2.4l-1.2,1.7L402,245.8z"/>
		<text transform="matrix(1 0 0 1 405.7328 243.9473)" class="st1 st2">上海</text>
	</g>
	<g data-id="23">
		<path class="st5" d="M264.1,267l4.7-1.7l3.8,1.7l0.8-4.8l4.5-3.1l1.1-6.4l3.3-0.9v-6.2l3.1-1.2l6.7,2.4l1.4,1.9l3.4-0.7l2.1,0.2
			l2.2,2.9l0.9,5.5l-0.7,1.9l-1.4-0.5c0,0-2.6,2.9-4.1,3.2c-1.5,0.3-6.9,1.2-6.9,1.2l-1.9,1.9l1.5,1.9l0.2,4.1l1.9,0.5l4.8,6l0.3,7.8
			l-2.7,2l-0.5,0.4l-2.8-2.9l-2.7-3.6l-0.2-2.2l-1.9-0.4l-2.2,0.7l-3.6-1.7l-1.7,4.1l-3.1,0.2l-2.2,3.4l-1.4-0.7l-1.9-5.8l-5.4-3.4
			L264.1,267z"/>
		<text transform="matrix(1 0 0 1 273.9848 272.3691)" class="st1 st2">重庆</text>
	</g>
	<g data-id="24">
		<path class="st11" d="M357,169.1c0,0-1.5,1.4-2.8,1.1c-1.2-0.3-4.6-1.2-4.6-1.2l-0.2-1.2l-0.2-7.6l3.1-1.4l-0.5-1.4l0.7-3l0.3-1.4
			l1.6,0.8l0.8,2.6l-0.3,1.7l3.4,2.4l0.5,1.9l-2,1.4l-0.7,3.2L357,169.1z"/>
		<text transform="matrix(1 0 0 1 355.56 164.3804)" class="st1 st2">天津</text>
	</g>
	<g data-id="25">
		<path class="st5" d="M349.3,160.2l-0.3-2.4l-0.7-1.6l4.2-1.8l0.3-1.4l-1-4h-1.4l-5.6-2.9l-3.1,3.1c0,0-0.9,5.5-0.7,4.1
			c0.2-1.4-3.1,3.6-3.1,3.6l-0.5,3.6l0.7,1.9l4.1-0.7l3.1,0.9l1.5-1.4L349.3,160.2z"/>
		<text transform="matrix(1 0 0 1 341.3491 150.0308)" class="st1 st2">北京</text>
	</g>
	<g data-id="26">
		<path class="st7" d="M250,190.9l2.9-0.6l2.4-1l4-3.3l0.8-5.3l2.4-7.6l5-3.4l0.7,0.8l1.5,5.2l-2.4,3.4l-0.5,3.1l7.6,2.9l0.7,2.2
			l4.5-0.3l2.2,0.5l1,0.7l7.8-11.2l2.1-0.7l0.5-1.4l-0.2-2.2l2.6-3.8l5.1-0.3l1.9-2.1l1.2,0.9l2.9-2.4h1.6l5.3-7.5l2.7,0.2l3.3-2.4
			l1,1l6.2-3.2l-3.1-5.2l1-5.3l2.6-5.5l2.2-1l1.4,0.7v3.9l1.7,1.2l3.8-2.9l1.7-1.7l1.7,0.7l1.9-1.7l4.1-0.2l0.7-1.4l-1-2.2l2.9-2.9
			l3.4-1.7l5.3,5.8l-0.3,2.2l2.7,4l6.2,0.5l1.4-2.9l-1.6-8.3l1.4-1.4l2.9,1.9l2.6,3.9l4.1-6.3l1.9-0.5l3.1-3.1h1.5l2.6-2.6h1.5
			l1.4-2.4h3.8l3.4-3.4l1.7-1.7v-1.9l-2.7-1.4v-3.6l-5-6.3l-4.8,4.6l-1.4-1l-0.3-2.6l-1.9-2.9l-0.5-3.3v-3.4l-3.3-2.4l-0.5-1.4l0.9-2
			l6.3,1.7l0.2-2.9l2.2-2.6l-1.5-1.4l0.3-2.7l3.1-1.4l0.7-1l-0.5-0.9l-3.3,0.9l-6-4.1l-0.3-1.2l2.9-3.8l6-8.8l0.5-0.9h1l1.9,2.4
			l0.5,0.4l0.2-11.1l1.9-1v-4.3l-0.5-6.9l2.4-9.7l-7.1-5.3l-5.5,4.6l-2.9,0.4l-1.4,1.5l-4.8-0.7l-2.4-2.7l-1.4-4.3l0.2-1.7l-3.8-2.4
			l-2.2,3.6l-4.1-2.6l-0.7-0.7l2.4-6.3L359.5,8h-1.7l-4.3,3.1l-3.6,5.3l1.4,0.9l2.7,0.3l2.1,5.5l-1.2,2.2l-2.1,3.1L349,42.6l1.5,2.4
			l-1.2,2.1l-8.8,6.5l-4.8-0.9l-2.7-1l-0.4,1.4l-3.9,15.5l-1.9,2l1,2.8l2.4,2l4-2.2l6.5,0.5l1.9-3.1l3.4-0.8l6.5,2.4l7.8,8.1v1.7
			l-1.7,1.2l-9,0.5l-3.1,2.4l-2.4-0.3l-1.7,2.7l-4.3,0.9l-2.9,4.3l-0.5,3.2l-6.2,4l-3.9,0.5l-4.3,5.8l-4.1,2.4l-7.8-1.7l-2.6-1.2
			l-3.1,3.1l-1.5,5.5l4.3,6.3l-2.8,2.9l-3.9,2.4c0,0-7,8.9-5.7,7.1c1.4-1.7-5.5,2.8-7.4,3.3c-1.9,0.5-12.1,1.2-12.1,1.2l-1.9-0.2
			l-14.1,6l-6.5,4.1l-1.9-1l-0.7-1.9l-8.6-0.5l-9.9-3.1l-2.7-3.1l-14.5-1.7l-2.7,1.2l-17.6-1.7l-0.3,2.6l1.2,4.1l-0.7,6.6l5.1,7.4
			l2.6,1.7l4.1-3.2h8.5l2.2,0.8l1.2,1.9l-1,2.1l-4.8,3.9l0.5,1.9l5.5,4.1h2.2l0.7,0.9l-0.5,1.7l3.4,2.7l7.8,1.2l3.8-1l4.8-4.8l5.8,0.5
			l2.4,3.6l-1.4,3.3l0.4,2l-3.1,1.9l-1.4,1.7l0.5,4l5.5,3.9L250,190.9z"/>
		<text transform="matrix(1 0 0 1 269.7895 154.415)" class="st1 st2">内蒙古</text>
	</g>
	<g data-id="27">
		<path class="st7" d="M253,325.4l3.1,0.2l3.4-3.1l1.4,0.9l6.5,2.7l1.2-0.7l0.2-2.2l1.2-1.2l9.1-6l1.6,1.9l5.6,1.7l3.1-4.1l1.4,1h2.2
			v-1.2l2.9-1v-0.9l1.2-1.2l0.7,0.2l2.9-2.9l2.4,0.7l2.4-3.3l1.2,2.6l0.7-0.2l3.8-3.6l1,0.2l1.7-0.9l3.1,0.9v3.4l2.4,0.5l-0.7,3.3
			l-2.2,3.6l-1,3.1h1l2.6-2.4l2.2,4.8l1.7-1.2h1.9l1.4,4.8l-1.4,2l0.2,2.1l-4.3,5.5l0.3,5.8l-5.6,4.3l-0.4,3.6l-3.2,1.5l0.3,2.1
			l-3.1,0.7l-2.4,3.9l-6.3,0.9l-3.3-2.4l-3.4-1.4l-3.4,3.4l-3.5,0.2l-3.4,0.2c0,0-9.2-5.1-7.6-4.3c1.5,0.9-1.4-3.8-1.4-3.8l1.9-3.9
			l-2.2-1.6h-2.9l-0.7-0.8l-3.1,0.8l-3.1-2.2l1.2-3.4l2.4-0.2l0.9-0.7l0.8-3.1l-1-1.7l-8.1-1.5l-1.4-2.4h-2.4h-2.2l-1.6-2.6L253,325.4
			z"/>
		<text transform="matrix(1 0 0 1 286.5786 336.4551)" class="st1 st2">广西</text>
	</g>
	<g data-id="28">
		<path class="st5" d="M126.5,59.9l1.9,0l-1.2,3.8l1.7,2l0.2,1.4l3.8,3.8l1,2.9l5,0.3l2.2,1.9h1.2l2.9,6.2l2.9,7.4l-1.5,4.5l0.3,1.7
			l-2.7,4.6l0.7,3.6l9.3,4l10,1.5l10.4,7.1l3.4,1.2l0.2,1.9l2.2,4.6l2.2,6l2.8,5l-1.6,1.9v3.4l-3.6,1.7l-8.8,3.6l-5.8,4.8l-4.1,1.9
			l-0.7,2.9l1.2,13.8l-3.3-0.5l-1.5,1.2l-21.9,4.3l-3.1,2.4l0.3,5.8l6.7,5.5L137,191l-3.1,1.4l-0.5,1.7l0.7,1.9h1.7l1,1.2l-6.5,2.2
			l-3.8-1.4l-2-1.2h-4.8l-8.5-3.9h-5.5l-4.3,1.2h-4.8l-7.4,4.1l-6-0.7l-6,2.1l-5-1.6l-3.1-2.7l-7.9-1.2l-5.2,3.6l-2.9-1.2l-2.4-1.9
			l-5.8-1.4l-0.9-1L42,192l-8.2,5l-8.4-1l-0.7-0.3l0.9-7.2l-3.8-1l-7.8-5.8l-2.2-0.2l-1.7-3.8l1.2-3.9l-0.4-1.9L8.1,170l-1-1.9l-6-3.4
			v-1l2.9-1.2l1.7,1l1.7-1.7l-0.5-5.7l0.5-4.8l-3.9-3.9L1,148.3l-1-2.8l1.5-2.9l-0.8-2.7l2.5-2.3l1-1v-2.2l3.6-1.7l3.6-0.7l3.2-1.2
			l2.6,0.7l1.9-0.7l0.7,0.5l0.3,2.4l1.7,0.7l4-0.2c0,0,3-3.9,4.6-5.1c1.6-1.1,9.3,2,9.3,2l4.8-3.4l13.8-3.1l0.9-1.9l1.2-5.3l3.9-3.1
			h1.2v-1.6l0.2-13.2l0.7-2.7l-3.8-1.4l-0.2-1l4-1.2l10.3-0.9l1.6,2.1l3.6,0.8l1,0.2l1.4-1.9l-1.9-1.9l7.6-15.5l1.2-0.8L98,79h3.1
			l1.4,1.9l6.7-2.1l1.7-11l2.9-1.9l3.4-0.2l2.4-2.9l0.9-2.9l1.9-1L126.5,59.9z"/>
		<text transform="matrix(1 0 0 1 90.455 141.9766)" class="st1 st2">新疆</text>
	</g>
	<g data-id="29">
		<path class="st3" d="M125.4,285.1l5.7,0.7l1.9,2.7l1,0.4l8.5-1.6l0.5-1.5l1.7-0.9l4.1-3.4l3.6-0.5l3.3-2.1l6.5-3.6l0.7,1.2l4.8,1.6
			l6.9-3.6l2.2,1.5l-2,2.9l0.8,0.7h2.8l0.3,1.2l-2.4,4.3l0.7,0.7h1.4l6.9,1.9l3.1-2.6l4.6,3.6l1.4-1.7l1.2,1.2h1.5l0.7-1.2l-0.3-5.5
			l1.2-0.7l2.9-3.6l-0.5-13.8l-2.6-7l1.9-1.4l-5.5-10l-6.7-5.3l-1.9,1.2l0.2,3.1l-5.8,7.4l-9.5-2l-0.7-3.6l-6-4.8l-13.1-2.1l-5.7-1
			l-2.2-0.2l-5-4.1l-10.3-2.4l-7.1-13.8l-0.2-3.9l2.9-1.4v-4.3l2.1-5.3l-2.4-2.4l3.2-2.6l-2-1.2h-4.8l-8.5-3.9h-5.5l-4.3,1.2h-4.8
			l-7.4,4.1l-6-0.7l-6,2.1l-5-1.6l-3.1-2.7l-7.9-1.2l-5.2,3.6l-2.9-1.2l-2.4-1.9l-5.8-1.4l-0.9-1L42,192l-8.2,5l-8.7-1.1l2,3.7
			l2.2,1.7l-0.7,3.2l-0.2,3.1l0.2,2.2l0,0l-0.2,2.7l2.9,2.9l0.2,4.1l-0.9,1.6l-4.3,0.5l-2.2-2.4l-2.2,0.3l-0.4,1.9l1.2,3.1l0.4,2.2
			v2.8l-0.7,2l0.3,1.6l2.8,0.3l1.5,2.6l6.5,5.1v1.6l4.8,5.3l1.6,1.9l1.5,0.5l2.9-2.9l2.6,2.4c0,0,12.8,11.4,10.9,9.3
			c-1.9-2.1,2,4.8,2,4.8h2.4l1.4-1.4l1.2,1.2v4.3l6.5,3.6l1.4-0.3l1,3.6l5.5,3.2l0.2,2.1l1,0.7l4.8-0.2h2.6l3.9,2.9l8.5-0.3l4.6-0.2
			l1.2,1.9l-1,4.1l1.2,1.4l4.8-4l6-4.4l4.3,0.8L125.4,285.1z"/>
		<text transform="matrix(1 0 0 1 103.8588 246.6436)" class="st1 st2">西藏</text>
	</g>
	<g data-id="30">
		<path class="st12" d="M324.5,321l1.9-1.4v-2.9l1-0.9l2.4,0.2l4.1,1.9l0.7-1.4l-1-1.7l0.3-1.2l2.6-2.2l4.6,1.2l2.6-1.6l1.9,1.9
			l4.6-1.2l0.9,1.7l-1.4,1.9l-2.4,3.6v0.9l1.4,1l9.5-3.8l3.4,1.9l1-1l-1-2.1l0.2-1.4l6.2,1.4l1.2,0.9l1.7-0.2l2.6,3.3l2.9,6.3
			l-1.9,1.4l-1.7,3.1l-1.5,0.5l-1.4,2.9l-4.8,2.4l-1.9-1l-1.2,2v0.7h-1.5h-2.6l-2.4,1.7l-1.7-1l-2.1,1.4l-5.3,2.2l-4.3-3.4l-0.3,2.7
			l1.5,4.1l-3.9,1.6l-2.1,2.9l-4.1,1l-2.2,0.9h-4.3c0,0-0.7,2.1-2.9,2.9c-2.2,0.8-7.6,2.7-7.6,2.7l-3.8,2.6l-1.9,1.9l3.6,5.8l-2.4,2.1
			l-2.9-0.2l-3.4-6.2l0.8-4.4V357l2.4-3.9l3.1-0.7l-0.3-2.1l3.2-1.5l0.4-3.6l5.6-4.3l-0.3-5.8l4.3-5.5l-0.2-2.1l1.4-2L324.5,321z"/>
		<text transform="matrix(1 0 0 1 332.727 330.7422)" class="st1 st2">广东</text>
	</g>
	<g data-id="31">
		<path class="st5" d="M273.3,193.8l0.2-4.6l1.5-2.1l-0.7-2.2l-7.6-2.9l0.5-3.1l2.4-3.4l-1.5-5.2l-0.7-0.8l-5,3.4l-2.4,7.6l-0.8,5.3
			l-4,3.3l-2.4,1l-2.9,0.6c0,0,7.7,9.4,6.4,7.9c-1.2-1.5,1.4,6,1.4,6l-0.7,2.9l4.5,2.4v1.9l4.1,1h1.2v-3.4l3.1-0.5l0.8-4l-2.2-1.7
			l-1.7-1.7l0.7-7.6l1.7-0.9l2.9,1.2L273.3,193.8z"/>
		<text transform="matrix(1 0 0 1 255.3754 192.7285)" class="st1 st2">宁夏</text>
	</g>
	<g data-id="32">
		<path class="st13" d="M346.5,343l2.8,0.6l2.9-2.1l1.4,3.8c0,0-4.6,2.2-3.1,1.5c1.5-0.7-3.9-0.3-3.9-0.3l-0.7-2.9L346.5,343z"/>
		<text transform="matrix(1 0 0 1 354.686 347.8271)" class="st1 st2">香港</text>
	</g>
	<g data-id="33">
		<path class="st13" d="M341.7,346.5l-0.8,1.5c0,0,0.7,0.7,3.3,0.9c2.6,0.2,5-0.4,5-0.4l-9.2,3.9L341.7,346.5z"/>
		<text transform="matrix(1 0 0 1 338.7963 359.4678)" class="st1 st2">澳门</text>
	</g>
</svg>
